<svg width="1200" height="630" viewBox="0 0 1200 630" xmlns="http://www.w3.org/2000/svg">
<defs>
  <linearGradient id="bg" x1="0%" y1="0%" x2="100%" y2="100%">
    <stop offset="0%" stop-color="#022c22"/><stop offset="100%" stop-color="#010f0a"/>
  </linearGradient>
  <linearGradient id="em" x1="0%" y1="0%" x2="100%" y2="0%">
    <stop offset="0%" stop-color="#059669"/><stop offset="100%" stop-color="#10b981"/>
  </linearGradient>
  <filter id="glow"><feGaussianBlur stdDeviation="5" result="b"/><feMerge><feMergeNode in="b"/><feMergeNode in="SourceGraphic"/></feMerge></filter>
  <filter id="sh"><feDropShadow dx="4" dy="7" stdDeviation="10" flood-color="#000" flood-opacity="0.5"/></filter>
</defs>
<rect width="1200" height="630" fill="url(#bg)"/>
<circle cx="1000" cy="-50" r="280" fill="#064e3b" opacity="0.2"/>
<circle cx="80" cy="680" r="240" fill="#022c22" opacity="0.3"/>

<!-- Building silhouette (office + apartment) -->
<!-- Office building -->
<rect x="840" y="300" width="120" height="240" rx="4" fill="#052e1a" stroke="#065f46" stroke-width="1" opacity="0.85"/>
<rect x="840" y="300" width="120" height="20" rx="4 4 0 0" fill="#064e3b"/>
<!-- Office windows grid -->
<rect x="852" y="328" width="18" height="14" rx="2" fill="#10b981" opacity="0.4"/>
<rect x="876" y="328" width="18" height="14" rx="2" fill="#10b981" opacity="0.6"/>
<rect x="900" y="328" width="18" height="14" rx="2" fill="#10b981" opacity="0.3"/>
<rect x="924" y="328" width="18" height="14" rx="2" fill="#10b981" opacity="0.5"/>
<rect x="852" y="350" width="18" height="14" rx="2" fill="#10b981" opacity="0.5"/>
<rect x="876" y="350" width="18" height="14" rx="2" fill="#34d399" opacity="0.7"/>
<rect x="900" y="350" width="18" height="14" rx="2" fill="#10b981" opacity="0.5"/>
<rect x="924" y="350" width="18" height="14" rx="2" fill="#10b981" opacity="0.3"/>
<rect x="852" y="372" width="18" height="14" rx="2" fill="#10b981" opacity="0.3"/>
<rect x="876" y="372" width="18" height="14" rx="2" fill="#10b981" opacity="0.4"/>
<rect x="900" y="372" width="18" height="14" rx="2" fill="#10b981" opacity="0.5"/>
<rect x="924" y="372" width="18" height="14" rx="2" fill="#34d399" opacity="0.6"/>
<rect x="852" y="394" width="18" height="14" rx="2" fill="#10b981" opacity="0.4"/>
<rect x="876" y="394" width="18" height="14" rx="2" fill="#10b981" opacity="0.3"/>
<rect x="900" y="394" width="18" height="14" rx="2" fill="#10b981" opacity="0.6"/>
<rect x="924" y="394" width="18" height="14" rx="2" fill="#10b981" opacity="0.4"/>
<!-- Apartment building -->
<rect x="980" y="350" width="180" height="190" rx="4" fill="#052e1a" stroke="#065f46" stroke-width="1" opacity="0.85"/>
<rect x="980" y="350" width="180" height="20" rx="4 4 0 0" fill="#064e3b"/>
<!-- Apt windows -->
<rect x="992" y="378" width="22" height="16" rx="2" fill="#34d399" opacity="0.5"/>
<rect x="1022" y="378" width="22" height="16" rx="2" fill="#10b981" opacity="0.4"/>
<rect x="1052" y="378" width="22" height="16" rx="2" fill="#34d399" opacity="0.6"/>
<rect x="1082" y="378" width="22" height="16" rx="2" fill="#10b981" opacity="0.3"/>
<rect x="1112" y="378" width="22" height="16" rx="2" fill="#10b981" opacity="0.5"/>
<rect x="1142" y="378" width="14" height="16" rx="2" fill="#34d399" opacity="0.4"/>
<rect x="992" y="402" width="22" height="16" rx="2" fill="#10b981" opacity="0.4"/>
<rect x="1022" y="402" width="22" height="16" rx="2" fill="#34d399" opacity="0.5"/>
<rect x="1052" y="402" width="22" height="16" rx="2" fill="#10b981" opacity="0.3"/>
<rect x="1082" y="402" width="22" height="16" rx="2" fill="#10b981" opacity="0.6"/>
<rect x="1112" y="402" width="22" height="16" rx="2" fill="#34d399" opacity="0.4"/>
<rect x="1142" y="402" width="14" height="16" rx="2" fill="#10b981" opacity="0.3"/>
<rect x="992" y="426" width="22" height="16" rx="2" fill="#34d399" opacity="0.6"/>
<rect x="1022" y="426" width="22" height="16" rx="2" fill="#10b981" opacity="0.4"/>
<rect x="1052" y="426" width="22" height="16" rx="2" fill="#34d399" opacity="0.5"/>
<rect x="1082" y="426" width="22" height="16" rx="2" fill="#10b981" opacity="0.3"/>
<rect x="1112" y="426" width="22" height="16" rx="2" fill="#10b981" opacity="0.5"/>
<rect x="992" y="450" width="22" height="16" rx="2" fill="#10b981" opacity="0.3"/>
<rect x="1022" y="450" width="22" height="16" rx="2" fill="#34d399" opacity="0.4"/>
<rect x="1052" y="450" width="22" height="16" rx="2" fill="#10b981" opacity="0.5"/>
<rect x="1082" y="450" width="22" height="16" rx="2" fill="#34d399" opacity="0.6"/>
<!-- Small locker at buildings base -->
<rect x="870" y="510" width="50" height="30" rx="4" fill="#059669" stroke="#34d399" stroke-width="1.5" filter="url(#glow)"/>
<rect x="1050" y="505" width="60" height="35" rx="4" fill="#059669" stroke="#34d399" stroke-width="1.5" filter="url(#glow)"/>
<text x="895" y="530" font-family="Arial,sans-serif" font-size="10" fill="#fff" text-anchor="middle" font-weight="700">LOCKER</text>
<text x="1080" y="527" font-family="Arial,sans-serif" font-size="10" fill="#fff" text-anchor="middle" font-weight="700">LOCKER</text>

<!-- Formula cards (upper right) -->
<rect x="730" y="100" width="280" height="80" rx="10" fill="#022c22" stroke="#059669" stroke-width="1.5" filter="url(#sh)"/>
<text x="760" y="128" font-family="Arial,sans-serif" font-size="13" fill="#6ee7b7" font-weight="700">VĂN PHÒNG (cố định):</text>
<text x="760" y="156" font-family="monospace" font-size="18" font-weight="700" fill="#34d399">Nhân viên ÷ 3 = Số ô</text>
<rect x="730" y="196" width="280" height="80" rx="10" fill="#022c22" stroke="#059669" stroke-width="1.5" filter="url(#sh)"/>
<text x="760" y="224" font-family="Arial,sans-serif" font-size="13" fill="#6ee7b7" font-weight="700">VĂN PHÒNG (hot-desk):</text>
<text x="760" y="252" font-family="monospace" font-size="18" font-weight="700" fill="#10b981">Nhân viên ÷ 1.5 = Số ô</text>
<rect x="730" y="292" width="280" height="80" rx="10" fill="#052e1a" stroke="#10b981" stroke-width="2" filter="url(#glow)"/>
<text x="760" y="320" font-family="Arial,sans-serif" font-size="13" fill="#a7f3d0" font-weight="700">CHUNG CƯ (nhận hàng):</text>
<text x="760" y="348" font-family="monospace" font-size="18" font-weight="700" fill="#34d399">Căn hộ ÷ 3 = Số ô</text>
<!-- Example -->
<rect x="730" y="390" width="280" height="100" rx="10" fill="#011a10" stroke="#065f46" stroke-width="1"/>
<text x="870" y="414" font-family="Arial,sans-serif" font-size="11" fill="#6ee7b7" text-anchor="middle" font-weight="700">VÍ DỤ: 300 căn hộ</text>
<text x="870" y="436" font-family="Arial,sans-serif" font-size="16" fill="#34d399" text-anchor="middle" font-weight="700">300 ÷ 3 = 100 ô tủ</text>
<text x="870" y="458" font-family="Arial,sans-serif" font-size="12" fill="#6ee7b7" text-anchor="middle">60% ngăn M · 25% ngăn L · 15% ngăn S</text>
<text x="870" y="478" font-family="Arial,sans-serif" font-size="12" fill="#4ade80" text-anchor="middle">+25% nếu cư dân mua online nhiều</text>

<!-- TEXT LEFT -->
<text x="80" y="64" font-family="Arial,sans-serif" font-size="12" font-weight="700" fill="#34d399" letter-spacing="3">HƯỚNG DẪN</text>
<text x="80" y="148" font-family="Georgia,serif" font-size="58" font-weight="900" fill="#fff">Cần bao nhiêu</text>
<text x="80" y="216" font-family="Georgia,serif" font-size="58" font-weight="900" fill="#34d399">ô locker?</text>
<rect x="80" y="234" width="70" height="4" rx="2" fill="#10b981"/>
<text x="80" y="275" font-family="Arial,sans-serif" font-size="20" fill="#6ee7b7">Công thức tính toán thực tế</text>
<text x="80" y="303" font-family="Arial,sans-serif" font-size="20" fill="#6ee7b7">Văn phòng · Nhà máy · Chung cư</text>
<!-- Tags -->
<rect x="80" y="348" width="120" height="34" rx="17" fill="#022c22" stroke="#065f46" stroke-width="1"/>
<text x="140" y="370" font-family="Arial,sans-serif" font-size="13" fill="#34d399" text-anchor="middle">Văn phòng</text>
<rect x="214" y="348" width="120" height="34" rx="17" fill="#022c22" stroke="#065f46" stroke-width="1"/>
<text x="274" y="370" font-family="Arial,sans-serif" font-size="13" fill="#34d399" text-anchor="middle">Chung cư</text>
<rect x="80" y="396" width="120" height="34" rx="17" fill="#022c22" stroke="#065f46" stroke-width="1"/>
<text x="140" y="418" font-family="Arial,sans-serif" font-size="13" fill="#34d399" text-anchor="middle">Nhà máy</text>
<rect x="214" y="396" width="120" height="34" rx="17" fill="#022c22" stroke="#065f46" stroke-width="1"/>
<text x="274" y="418" font-family="Arial,sans-serif" font-size="13" fill="#34d399" text-anchor="middle">Trường học</text>
<rect x="80" y="504" width="210" height="50" rx="25" fill="url(#em)"/>
<text x="185" y="534" font-family="Arial,sans-serif" font-size="17" font-weight="800" fill="#022c22" text-anchor="middle">TSE VENDING</text>
<text x="80" y="600" font-family="Arial,sans-serif" font-size="14" fill="#059669">tsevending.com</text>
</svg>
