<svg width="1200" height="630" viewBox="0 0 1200 630" xmlns="http://www.w3.org/2000/svg">
<defs>
  <linearGradient id="bg" x1="0%" y1="0%" x2="100%" y2="100%">
    <stop offset="0%" stop-color="#052e16"/><stop offset="100%" stop-color="#021309"/>
  </linearGradient>
  <linearGradient id="grn" x1="0%" y1="0%" x2="100%" y2="0%">
    <stop offset="0%" stop-color="#16a34a"/><stop offset="100%" stop-color="#22c55e"/>
  </linearGradient>
  <filter id="glow"><feGaussianBlur stdDeviation="5" result="b"/><feMerge><feMergeNode in="b"/><feMergeNode in="SourceGraphic"/></feMerge></filter>
  <filter id="sh"><feDropShadow dx="4" dy="7" stdDeviation="10" flood-color="#000" flood-opacity="0.45"/></filter>
</defs>
<rect width="1200" height="630" fill="url(#bg)"/>
<circle cx="1000" cy="-50" r="280" fill="#14532d" opacity="0.2"/>
<circle cx="100" cy="680" r="250" fill="#052e16" opacity="0.3"/>

<!-- Checklist panel (right side) -->
<rect x="1010" y="120" width="160" height="360" rx="12" fill="#071f0d" stroke="#166534" stroke-width="1" filter="url(#sh)"/>
<rect x="1010" y="120" width="160" height="28" rx="12 12 0 0" fill="#166534"/>
<text x="1090" y="139" font-family="Arial,sans-serif" font-size="11" font-weight="700" fill="#86efac" text-anchor="middle" letter-spacing="1">6 TIÊU CHÍ</text>
<!-- Checklist items -->
<circle cx="1036" cy="175" r="9" fill="#16a34a" opacity="0.85"/>
<text x="1036" y="179" font-family="Arial,sans-serif" font-size="11" fill="#fff" text-anchor="middle" font-weight="700">✓</text>
<text x="1054" y="179" font-family="Arial,sans-serif" font-size="13" fill="#86efac">Số ô tủ</text>

<circle cx="1036" cy="215" r="9" fill="#16a34a" opacity="0.85"/>
<text x="1036" y="219" font-family="Arial,sans-serif" font-size="11" fill="#fff" text-anchor="middle" font-weight="700">✓</text>
<text x="1054" y="219" font-family="Arial,sans-serif" font-size="13" fill="#86efac">Kích thước</text>

<circle cx="1036" cy="255" r="9" fill="#16a34a" opacity="0.85"/>
<text x="1036" y="259" font-family="Arial,sans-serif" font-size="11" fill="#fff" text-anchor="middle" font-weight="700">✓</text>
<text x="1054" y="259" font-family="Arial,sans-serif" font-size="13" fill="#86efac">Mở khóa</text>

<circle cx="1036" cy="295" r="9" fill="#16a34a" opacity="0.85"/>
<text x="1036" y="299" font-family="Arial,sans-serif" font-size="11" fill="#fff" text-anchor="middle" font-weight="700">✓</text>
<text x="1054" y="299" font-family="Arial,sans-serif" font-size="13" fill="#86efac">Phần mềm</text>

<circle cx="1036" cy="335" r="9" fill="#15803d" opacity="0.7"/>
<text x="1036" y="339" font-family="Arial,sans-serif" font-size="11" fill="#fff" text-anchor="middle" font-weight="700">✓</text>
<text x="1054" y="339" font-family="Arial,sans-serif" font-size="13" fill="#4ade80">Vật liệu</text>

<circle cx="1036" cy="375" r="9" fill="#15803d" opacity="0.7"/>
<text x="1036" y="379" font-family="Arial,sans-serif" font-size="11" fill="#fff" text-anchor="middle" font-weight="700">✓</text>
<text x="1054" y="379" font-family="Arial,sans-serif" font-size="13" fill="#4ade80">Nhà cung cấp</text>
<!-- Progress bar -->
<rect x="1022" y="418" width="136" height="8" rx="4" fill="#071f0d"/>
<rect x="1022" y="418" width="136" height="8" rx="4" fill="url(#grn)" opacity="0.9"/>
<text x="1090" y="444" font-family="Arial,sans-serif" font-size="11" fill="#4ade80" text-anchor="middle">100% hoàn chỉnh</text>
<rect x="1022" y="456" width="136" height="12" rx="6" fill="#14532d"/>
<rect x="1090" y="466" width="0" height="0"/>

<!-- LOCKER CABINET -->
<rect x="726" y="108" width="230" height="344" rx="8" fill="rgba(0,0,0,0.3)" filter="url(#sh)"/>
<rect x="720" y="100" width="230" height="344" rx="8" fill="#041a09"/>
<rect x="720" y="100" width="230" height="26" rx="8" fill="#052e16"/>
<rect x="720" y="116" width="230" height="10" fill="#052e16"/>
<rect x="720" y="100" width="5" height="344" rx="2" fill="#22c55e" opacity="0.4"/>
<text x="835" y="118" font-family="Arial,sans-serif" font-size="10" fill="#22c55e" text-anchor="middle" letter-spacing="1.5" font-weight="700">TSE LOCKER</text>
<!-- Doors -->
<rect x="730" y="134" width="58" height="62" rx="4" fill="#031208" stroke="#0f4a1e" stroke-width="1"/>
<rect x="782" y="157" width="4" height="14" rx="2" fill="#166534"/>
<rect x="730" y="204" width="58" height="62" rx="4" fill="#031208" stroke="#0f4a1e" stroke-width="1"/>
<rect x="782" y="227" width="4" height="14" rx="2" fill="#166534"/>
<rect x="730" y="274" width="58" height="62" rx="4" fill="#031208" stroke="#0f4a1e" stroke-width="1"/>
<rect x="782" y="297" width="4" height="14" rx="2" fill="#166534"/>
<rect x="730" y="344" width="58" height="62" rx="4" fill="#031208" stroke="#0f4a1e" stroke-width="1"/>
<rect x="782" y="367" width="4" height="14" rx="2" fill="#166534"/>
<rect x="796" y="134" width="58" height="62" rx="4" fill="#031208" stroke="#0f4a1e" stroke-width="1"/>
<rect x="848" y="157" width="4" height="14" rx="2" fill="#166534"/>
<!-- OPEN green glow -->
<rect x="796" y="204" width="58" height="62" rx="4" fill="#14532d" stroke="#22c55e" stroke-width="2" filter="url(#glow)"/>
<rect x="802" y="210" width="46" height="50" rx="3" fill="#052e16" opacity="0.7"/>
<rect x="848" y="227" width="4" height="14" rx="2" fill="#22c55e"/>
<text x="825" y="244" font-family="Arial,sans-serif" font-size="26" fill="#22c55e" text-anchor="middle" font-weight="900">✓</text>
<rect x="796" y="274" width="58" height="62" rx="4" fill="#031208" stroke="#0f4a1e" stroke-width="1"/>
<rect x="848" y="297" width="4" height="14" rx="2" fill="#166534"/>
<rect x="796" y="344" width="58" height="62" rx="4" fill="#031208" stroke="#0f4a1e" stroke-width="1"/>
<rect x="848" y="367" width="4" height="14" rx="2" fill="#166534"/>
<rect x="862" y="134" width="58" height="62" rx="4" fill="#031208" stroke="#0f4a1e" stroke-width="1"/>
<rect x="914" y="157" width="4" height="14" rx="2" fill="#166534"/>
<rect x="862" y="204" width="58" height="62" rx="4" fill="#031208" stroke="#0f4a1e" stroke-width="1"/>
<rect x="914" y="227" width="4" height="14" rx="2" fill="#166534"/>
<rect x="862" y="274" width="58" height="62" rx="4" fill="#031208" stroke="#0f4a1e" stroke-width="1"/>
<rect x="914" y="297" width="4" height="14" rx="2" fill="#166534"/>
<rect x="862" y="344" width="58" height="62" rx="4" fill="#041508" stroke="#0f4a1e" stroke-width="1"/>
<rect x="914" y="367" width="4" height="14" rx="2" fill="#166534"/>
<rect x="746" y="442" width="12" height="14" rx="2" fill="#020a04"/>
<rect x="920" y="442" width="12" height="14" rx="2" fill="#020a04"/>
<rect x="720" y="458" width="230" height="62" rx="0 0 8 8" fill="#031208"/>
<rect x="733" y="468" width="194" height="40" rx="4" fill="#041a09"/>
<text x="830" y="491" font-family="Arial,sans-serif" font-size="14" fill="#22c55e" text-anchor="middle">Đúng ngay từ lần đầu tiên</text>

<!-- TEXT LEFT -->
<text x="80" y="64" font-family="Arial,sans-serif" font-size="12" font-weight="700" fill="#22c55e" letter-spacing="3">HƯỚNG DẪN</text>
<text x="80" y="148" font-family="Georgia,serif" font-size="62" font-weight="900" fill="#fff">Chọn Smart</text>
<text x="80" y="220" font-family="Georgia,serif" font-size="62" font-weight="900" fill="#22c55e">Locker Đúng</text>
<rect x="80" y="238" width="70" height="4" rx="2" fill="#22c55e"/>
<text x="80" y="278" font-family="Arial,sans-serif" font-size="21" fill="#86efac">6 tiêu chí cần xem xét</text>
<text x="80" y="306" font-family="Arial,sans-serif" font-size="21" fill="#86efac">Trước khi ký hợp đồng</text>
<!-- Icon pills -->
<rect x="80" y="346" width="100" height="36" rx="18" fill="#052e16" stroke="#166534" stroke-width="1"/>
<text x="130" y="369" font-family="Arial,sans-serif" font-size="13" fill="#22c55e" text-anchor="middle">S/M/L/XL</text>
<rect x="194" y="346" width="110" height="36" rx="18" fill="#052e16" stroke="#166534" stroke-width="1"/>
<text x="249" y="369" font-family="Arial,sans-serif" font-size="13" fill="#22c55e" text-anchor="middle">RFID · QR</text>
<rect x="318" y="346" width="110" height="36" rx="18" fill="#052e16" stroke="#166534" stroke-width="1"/>
<text x="373" y="369" font-family="Arial,sans-serif" font-size="13" fill="#22c55e" text-anchor="middle">API · Cloud</text>
<rect x="80" y="504" width="210" height="50" rx="25" fill="url(#grn)"/>
<text x="185" y="534" font-family="Arial,sans-serif" font-size="17" font-weight="800" fill="#052e16" text-anchor="middle">TSE VENDING</text>
<text x="80" y="600" font-family="Arial,sans-serif" font-size="14" fill="#16a34a">tsevending.com</text>
</svg>
