<svg width="1200" height="630" viewBox="0 0 1200 630" xmlns="http://www.w3.org/2000/svg">
<defs>
  <linearGradient id="bg" x1="0%" y1="0%" x2="100%" y2="100%">
    <stop offset="0%" stop-color="#431407"/><stop offset="100%" stop-color="#1c0a03"/>
  </linearGradient>
  <linearGradient id="org" x1="0%" y1="0%" x2="100%" y2="0%">
    <stop offset="0%" stop-color="#ea580c"/><stop offset="100%" stop-color="#f97316"/>
  </linearGradient>
  <filter id="glow"><feGaussianBlur stdDeviation="5" result="b"/><feMerge><feMergeNode in="b"/><feMergeNode in="SourceGraphic"/></feMerge></filter>
  <filter id="sh"><feDropShadow dx="5" dy="8" stdDeviation="10" flood-color="#000" flood-opacity="0.5"/></filter>
</defs>
<rect width="1200" height="630" fill="url(#bg)"/>
<circle cx="980" cy="-60" r="300" fill="#7c2d12" opacity="0.25"/>
<circle cx="100" cy="680" r="250" fill="#431407" opacity="0.3"/>
<!-- Shopping cart icon (right side) -->
<path d="M 920 200 L 950 200 L 975 310 L 1120 310 L 1140 240 L 960 240" stroke="#f97316" stroke-width="4" fill="none" stroke-linecap="round" stroke-linejoin="round" opacity="0.85"/>
<circle cx="990" cy="330" r="16" fill="#f97316" opacity="0.8"/>
<circle cx="1100" cy="330" r="16" fill="#f97316" opacity="0.8"/>
<!-- Basket items -->
<rect x="970" y="250" width="30" height="40" rx="4" fill="#ea580c" opacity="0.6"/>
<rect x="1010" y="255" width="25" height="35" rx="4" fill="#f97316" opacity="0.5"/>
<rect x="1045" y="248" width="35" height="42" rx="4" fill="#c2410c" opacity="0.6"/>
<rect x="1090" y="255" width="28" height="35" rx="4" fill="#ea580c" opacity="0.5"/>
<!-- QR scan phone -->
<rect x="1050" y="360" width="60" height="100" rx="10" fill="#1c0a03" stroke="#f97316" stroke-width="1.5"/>
<rect x="1056" y="370" width="48" height="80" rx="6" fill="#ea580c" opacity="0.2"/>
<!-- QR viewfinder corners -->
<path d="M 1066 380 L 1056 380 L 1056 390" stroke="#f97316" stroke-width="2.5" fill="none"/>
<path d="M 1094 380 L 1104 380 L 1104 390" stroke="#f97316" stroke-width="2.5" fill="none"/>
<path d="M 1066 440 L 1056 440 L 1056 430" stroke="#f97316" stroke-width="2.5" fill="none"/>
<path d="M 1094 440 L 1104 440 L 1104 430" stroke="#f97316" stroke-width="2.5" fill="none"/>
<!-- QR dot grid (simplified) -->
<rect x="1064" y="388" width="5" height="5" rx="1" fill="#f97316" opacity="0.8"/>
<rect x="1073" y="388" width="5" height="5" rx="1" fill="#f97316" opacity="0.6"/>
<rect x="1082" y="388" width="5" height="5" rx="1" fill="#f97316" opacity="0.8"/>
<rect x="1091" y="388" width="5" height="5" rx="1" fill="#f97316" opacity="0.5"/>
<rect x="1064" y="398" width="5" height="5" rx="1" fill="#f97316" opacity="0.5"/>
<rect x="1082" y="398" width="5" height="5" rx="1" fill="#f97316" opacity="0.7"/>
<rect x="1064" y="408" width="5" height="5" rx="1" fill="#f97316" opacity="0.8"/>
<rect x="1073" y="408" width="5" height="5" rx="1" fill="#f97316" opacity="0.4"/>
<rect x="1091" y="408" width="5" height="5" rx="1" fill="#f97316" opacity="0.7"/>

<!-- LOCKER CABINET -->
<rect x="726" y="108" width="230" height="344" rx="8" fill="rgba(0,0,0,0.4)" filter="url(#sh)"/>
<rect x="720" y="100" width="230" height="344" rx="8" fill="#1c0a03"/>
<rect x="720" y="100" width="230" height="26" rx="8" fill="#431407"/>
<rect x="720" y="116" width="230" height="10" fill="#431407"/>
<rect x="945" y="100" width="5" height="344" rx="2" fill="#ea580c" opacity="0.5"/>
<!-- Doors -->
<rect x="730" y="134" width="58" height="62" rx="4" fill="#120502" stroke="#5a1e08" stroke-width="1"/>
<rect x="782" y="157" width="4" height="14" rx="2" fill="#7c2d12"/>
<rect x="730" y="204" width="58" height="62" rx="4" fill="#120502" stroke="#5a1e08" stroke-width="1"/>
<rect x="782" y="227" width="4" height="14" rx="2" fill="#7c2d12"/>
<rect x="730" y="274" width="58" height="62" rx="4" fill="#120502" stroke="#5a1e08" stroke-width="1"/>
<rect x="782" y="297" width="4" height="14" rx="2" fill="#7c2d12"/>
<rect x="730" y="344" width="58" height="62" rx="4" fill="#120502" stroke="#5a1e08" stroke-width="1"/>
<rect x="782" y="367" width="4" height="14" rx="2" fill="#7c2d12"/>
<!-- Col 2 -->
<rect x="796" y="134" width="58" height="62" rx="4" fill="#120502" stroke="#5a1e08" stroke-width="1"/>
<rect x="848" y="157" width="4" height="14" rx="2" fill="#7c2d12"/>
<!-- OPEN door orange glow -->
<rect x="796" y="204" width="58" height="62" rx="4" fill="#7c2d12" stroke="#f97316" stroke-width="2" filter="url(#glow)"/>
<rect x="802" y="210" width="46" height="50" rx="3" fill="#431407" opacity="0.7"/>
<rect x="848" y="227" width="4" height="14" rx="2" fill="#f97316"/>
<!-- Bag in open door -->
<path d="M 816 228 Q 816 222 821 222 L 833 222 Q 838 222 838 228 L 838 246 Q 838 250 833 250 L 821 250 Q 816 250 816 246 Z" fill="#f97316" opacity="0.85"/>
<path d="M 822 222 Q 822 216 827 216 Q 832 216 832 222" stroke="#d97706" stroke-width="2" fill="none"/>
<rect x="796" y="274" width="58" height="62" rx="4" fill="#120502" stroke="#5a1e08" stroke-width="1"/>
<rect x="848" y="297" width="4" height="14" rx="2" fill="#7c2d12"/>
<rect x="796" y="344" width="58" height="62" rx="4" fill="#120502" stroke="#5a1e08" stroke-width="1"/>
<rect x="848" y="367" width="4" height="14" rx="2" fill="#7c2d12"/>
<!-- Col 3 -->
<rect x="862" y="134" width="58" height="62" rx="4" fill="#120502" stroke="#5a1e08" stroke-width="1"/>
<rect x="914" y="157" width="4" height="14" rx="2" fill="#7c2d12"/>
<rect x="862" y="204" width="58" height="62" rx="4" fill="#120502" stroke="#5a1e08" stroke-width="1"/>
<rect x="914" y="227" width="4" height="14" rx="2" fill="#7c2d12"/>
<rect x="862" y="274" width="58" height="62" rx="4" fill="#120502" stroke="#5a1e08" stroke-width="1"/>
<rect x="914" y="297" width="4" height="14" rx="2" fill="#7c2d12"/>
<rect x="862" y="344" width="58" height="62" rx="4" fill="#1a0805" stroke="#5a1e08" stroke-width="1"/>
<rect x="914" y="367" width="4" height="14" rx="2" fill="#7c2d12"/>
<!-- Legs + panel -->
<rect x="746" y="442" width="12" height="14" rx="2" fill="#0a0200"/>
<rect x="920" y="442" width="12" height="14" rx="2" fill="#0a0200"/>
<rect x="720" y="458" width="230" height="62" rx="0 0 8 8" fill="#0f0401"/>
<rect x="733" y="468" width="78" height="40" rx="4" fill="#1c0a03"/>
<circle cx="753" cy="488" r="3" fill="#f97316" opacity="0.7"/>
<circle cx="773" cy="488" r="3" fill="#f97316" opacity="0.5"/>
<circle cx="793" cy="488" r="3" fill="#f97316" opacity="0.3"/>
<rect x="823" y="468" width="42" height="40" rx="4" fill="url(#org)"/>
<text x="844" y="493" font-family="Arial,sans-serif" font-size="20" fill="#fff" text-anchor="middle" font-weight="700">▣</text>
<text x="835" y="118" font-family="Arial,sans-serif" font-size="10" fill="#ea580c" text-anchor="middle" letter-spacing="1.5" font-weight="700">TSE LOCKER</text>

<!-- TEXT LEFT -->
<text x="80" y="64" font-family="Arial,sans-serif" font-size="12" font-weight="700" fill="#f97316" letter-spacing="3">DỰ ÁN THỰC TẾ</text>
<text x="80" y="148" font-family="Georgia,serif" font-size="60" font-weight="900" fill="#fff">Tủ Gửi Đồ</text>
<text x="80" y="216" font-family="Georgia,serif" font-size="60" font-weight="900" fill="#f97316">Co.opmart</text>
<rect x="80" y="234" width="70" height="4" rx="2" fill="#f97316"/>
<text x="80" y="278" font-family="Arial,sans-serif" font-size="21" fill="#fdba74">Khách gửi đồ trong 30 giây</text>
<text x="80" y="306" font-family="Arial,sans-serif" font-size="21" fill="#fdba74">Tự phục vụ · Không nhân viên trực</text>
<rect x="80" y="342" width="148" height="50" rx="8" fill="#7c2d12" stroke="#c2410c" stroke-width="1"/>
<text x="154" y="364" font-family="Arial,sans-serif" font-size="22" font-weight="900" fill="#f97316" text-anchor="middle">30"</text>
<text x="154" y="382" font-family="Arial,sans-serif" font-size="12" fill="#fdba74" text-anchor="middle">Gửi đồ / lần</text>
<rect x="242" y="342" width="148" height="50" rx="8" fill="#7c2d12" stroke="#c2410c" stroke-width="1"/>
<text x="316" y="364" font-family="Arial,sans-serif" font-size="22" font-weight="900" fill="#f97316" text-anchor="middle">0</text>
<text x="316" y="382" font-family="Arial,sans-serif" font-size="12" fill="#fdba74" text-anchor="middle">Nhân sự cần</text>
<rect x="80" y="504" width="210" height="50" rx="25" fill="url(#org)"/>
<text x="185" y="534" font-family="Arial,sans-serif" font-size="17" font-weight="800" fill="#fff" text-anchor="middle">TSE VENDING</text>
<text x="80" y="600" font-family="Arial,sans-serif" font-size="14" fill="#ea580c">tsevending.com</text>
</svg>
