<svg xmlns="http://www.w3.org/2000/svg" width="1200" height="630" viewBox="0 0 1200 630">
  <defs>
    <linearGradient id="bg" x1="0%" y1="0%" x2="100%" y2="100%">
      <stop offset="0%" stop-color="#B45309"/>
      <stop offset="100%" stop-color="#0F766E"/>
    </linearGradient>
  </defs>
  <rect width="1200" height="630" fill="url(#bg)"/>
  <circle cx="1100" cy="-60" r="280" fill="rgba(255,255,255,0.06)"/>
  <circle cx="1050" cy="600" r="200" fill="rgba(255,255,255,0.05)"/>
  <circle cx="50" cy="500" r="160" fill="rgba(255,255,255,0.04)"/>
  <line x1="0" y1="160" x2="1200" y2="160" stroke="rgba(255,255,255,0.08)" stroke-width="1"/>
  <line x1="0" y1="490" x2="1200" y2="490" stroke="rgba(255,255,255,0.08)" stroke-width="1"/>
  <rect x="0" y="0" width="1200" height="56" fill="rgba(0,0,0,0.25)"/>
  <text x="40" y="37" font-family="'Segoe UI',Arial,sans-serif" font-size="20" font-weight="700" fill="white" letter-spacing="2">TSE VENDING</text>
  <text x="1160" y="37" font-family="'Segoe UI',Arial,sans-serif" font-size="16" fill="rgba(255,255,255,0.7)" text-anchor="end">tsevending.com</text>
  <rect x="40" y="80" width="230" height="36" rx="18" fill="#FCD34D" fill-opacity="0.9"/>
  <text x="155" y="104" font-family="'Segoe UI',Arial,sans-serif" font-size="15" font-weight="600" fill="#1E293B" text-anchor="middle">Locker siêu thị bán lẻ</text>
  <text font-family="'Segoe UI',Arial,sans-serif" font-size="56" font-weight="800" fill="white" x="80" y="230" letter-spacing="-0.5">
    <tspan x="80" dy="0">Tủ gửi đồ thông minh</tspan>
    <tspan x="80" dy="68">Siêu thị Co.opmart</tspan>
    <tspan x="80" dy="68">QR · Tự động · Không chờ</tspan>
  </text>
  <rect x="80" y="435" width="80" height="5" rx="3" fill="#FCD34D"/>
  <rect x="0" y="560" width="1200" height="70" fill="rgba(0,0,0,0.3)"/>
  <text x="40" y="603" font-family="'Segoe UI',Arial,sans-serif" font-size="18" fill="rgba(255,255,255,0.6)">Dự án thực tế — TSE Vending triển khai tại hệ thống siêu thị Co.opmart</text>
  <g transform="translate(1060,310)" opacity="0.15">
    <rect x="-55" y="-75" width="110" height="150" rx="10" fill="white"/>
    <rect x="-40" y="-58" width="32" height="42" rx="4" fill="#B45309"/>
    <rect x="8" y="-58" width="32" height="42" rx="4" fill="#B45309"/>
    <rect x="-40" y="-5" width="32" height="42" rx="4" fill="#B45309"/>
    <rect x="8" y="-5" width="32" height="42" rx="4" fill="#B45309"/>
    <rect x="-45" y="52" width="90" height="15" rx="4" fill="#FCD34D"/>
  </g>
</svg>
