<svg width="1200" height="630" viewBox="0 0 1200 630" xmlns="http://www.w3.org/2000/svg">
<defs>
  <linearGradient id="bg" x1="0%" y1="100%" x2="100%" y2="0%">
    <stop offset="0%" stop-color="#020e1f"/><stop offset="100%" stop-color="#0a1e3d"/>
  </linearGradient>
  <linearGradient id="teal" x1="0%" y1="0%" x2="100%" y2="0%">
    <stop offset="0%" stop-color="#0d9488"/><stop offset="100%" stop-color="#0891b2"/>
  </linearGradient>
  <filter id="glow"><feGaussianBlur stdDeviation="5" result="b"/><feMerge><feMergeNode in="b"/><feMergeNode in="SourceGraphic"/></feMerge></filter>
  <filter id="sh"><feDropShadow dx="5" dy="8" stdDeviation="10" flood-color="#000" flood-opacity="0.45"/></filter>
</defs>
<rect width="1200" height="630" fill="url(#bg)"/>
<circle cx="1000" cy="-80" r="320" fill="#0c2548" opacity="0.3"/>
<circle cx="60" cy="700" r="240" fill="#061630" opacity="0.4"/>
<!-- Academic arch decoration -->
<path d="M 800 0 Q 960 120 800 240" stroke="#0d3a6e" stroke-width="1" fill="none" opacity="0.5"/>
<path d="M 840 0 Q 1020 140 840 280" stroke="#0d3a6e" stroke-width="1" fill="none" opacity="0.3"/>
<!-- Graduation cap -->
<polygon points="1040,160 1140,200 1040,240 940,200" fill="#e61c24" opacity="0.85"/>
<rect x="1030" y="200" width="20" height="60" rx="2" fill="#c0392b" opacity="0.85"/>
<circle cx="1040" cy="260" r="10" fill="#e61c24" opacity="0.7"/>
<circle cx="1140" cy="200" r="6" fill="#fbbf24" opacity="0.9"/>
<!-- Tassel -->
<line x1="1140" y1="200" x2="1140" y2="240" stroke="#fbbf24" stroke-width="2" opacity="0.8"/>
<line x1="1140" y1="240" x2="1130" y2="260" stroke="#fbbf24" stroke-width="2" opacity="0.7"/>
<line x1="1140" y1="240" x2="1150" y2="265" stroke="#fbbf24" stroke-width="2" opacity="0.7"/>

<!-- Student card floating -->
<rect x="990" y="330" width="130" height="90" rx="8" fill="#0d2137" stroke="#0d9488" stroke-width="1.5"/>
<rect x="990" y="330" width="130" height="24" rx="8 8 0 0" fill="#0d9488"/>
<text x="1055" y="348" font-family="Arial,sans-serif" font-size="10" fill="#fff" text-anchor="middle" font-weight="700">STUDENT CARD</text>
<circle cx="1015" cy="380" r="16" fill="#1a3a5c"/>
<rect x="1040" y="368" width="65" height="6" rx="3" fill="#1a3a5c"/>
<rect x="1040" y="380" width="50" height="5" rx="2.5" fill="#112a42"/>
<rect x="1040" y="392" width="55" height="5" rx="2.5" fill="#0d2137"/>
<!-- RFID signal lines -->
<path d="M 990 360 Q 980 360 975 360" stroke="#0d9488" stroke-width="2" fill="none" opacity="0.6"/>
<path d="M 990 360 Q 975 345 968 360 Q 975 375 990 360" stroke="#14b8a6" stroke-width="1.5" fill="none" opacity="0.5"/>
<path d="M 990 360 Q 970 338 960 360 Q 970 382 990 360" stroke="#0d9488" stroke-width="1" fill="none" opacity="0.3"/>

<!-- LOCKER CABINET -->
<rect x="726" y="108" width="230" height="344" rx="8" fill="rgba(0,0,0,0.3)" filter="url(#sh)"/>
<rect x="720" y="100" width="230" height="344" rx="8" fill="#061630"/>
<rect x="720" y="100" width="230" height="26" rx="8" fill="#0c2548"/>
<rect x="720" y="116" width="230" height="10" fill="#0c2548"/>
<rect x="945" y="100" width="5" height="344" rx="2" fill="#0d9488" opacity="0.5"/>
<!-- Cabinet doors 3x4 -->
<rect x="730" y="134" width="58" height="62" rx="4" fill="#07111f" stroke="#0c2548" stroke-width="1"/>
<rect x="782" y="157" width="4" height="14" rx="2" fill="#1a4a6e"/>
<rect x="730" y="204" width="58" height="62" rx="4" fill="#07111f" stroke="#0c2548" stroke-width="1"/>
<rect x="782" y="227" width="4" height="14" rx="2" fill="#1a4a6e"/>
<rect x="730" y="274" width="58" height="62" rx="4" fill="#07111f" stroke="#0c2548" stroke-width="1"/>
<rect x="782" y="297" width="4" height="14" rx="2" fill="#1a4a6e"/>
<rect x="730" y="344" width="58" height="62" rx="4" fill="#07111f" stroke="#0c2548" stroke-width="1"/>
<rect x="782" y="367" width="4" height="14" rx="2" fill="#1a4a6e"/>
<!-- Col 2 -->
<rect x="796" y="134" width="58" height="62" rx="4" fill="#07111f" stroke="#0c2548" stroke-width="1"/>
<rect x="848" y="157" width="4" height="14" rx="2" fill="#1a4a6e"/>
<!-- OPEN with teal glow -->
<rect x="796" y="204" width="58" height="62" rx="4" fill="#0c3a30" stroke="#14b8a6" stroke-width="2" filter="url(#glow)"/>
<rect x="802" y="210" width="46" height="50" rx="3" fill="#0d4a3a" opacity="0.7"/>
<rect x="848" y="227" width="4" height="14" rx="2" fill="#14b8a6"/>
<!-- RFID card in open door -->
<rect x="809" y="220" width="28" height="18" rx="3" fill="#fbbf24" opacity="0.85"/>
<rect x="811" y="226" width="24" height="3" rx="1" fill="#92400e" opacity="0.6"/>
<circle cx="836" cy="230" r="4" fill="#d97706" opacity="0.7"/>
<rect x="796" y="274" width="58" height="62" rx="4" fill="#07111f" stroke="#0c2548" stroke-width="1"/>
<rect x="848" y="297" width="4" height="14" rx="2" fill="#1a4a6e"/>
<rect x="796" y="344" width="58" height="62" rx="4" fill="#07111f" stroke="#0c2548" stroke-width="1"/>
<rect x="848" y="367" width="4" height="14" rx="2" fill="#1a4a6e"/>
<!-- Col 3 -->
<rect x="862" y="134" width="58" height="62" rx="4" fill="#07111f" stroke="#0c2548" stroke-width="1"/>
<rect x="914" y="157" width="4" height="14" rx="2" fill="#1a4a6e"/>
<rect x="862" y="204" width="58" height="62" rx="4" fill="#07111f" stroke="#0c2548" stroke-width="1"/>
<rect x="914" y="227" width="4" height="14" rx="2" fill="#1a4a6e"/>
<rect x="862" y="274" width="58" height="62" rx="4" fill="#07111f" stroke="#0c2548" stroke-width="1"/>
<rect x="914" y="297" width="4" height="14" rx="2" fill="#1a4a6e"/>
<rect x="862" y="344" width="58" height="62" rx="4" fill="#071520" stroke="#0c2548" stroke-width="1"/>
<rect x="914" y="367" width="4" height="14" rx="2" fill="#1a4a6e"/>
<!-- Legs -->
<rect x="746" y="442" width="12" height="14" rx="2" fill="#020810"/>
<rect x="920" y="442" width="12" height="14" rx="2" fill="#020810"/>
<!-- RFID reader on cabinet -->
<rect x="720" y="458" width="230" height="62" rx="0 0 8 8" fill="#050e1c"/>
<rect x="733" y="466" width="90" height="44" rx="4" fill="#0a1e38"/>
<circle cx="760" cy="488" r="16" fill="#061630" stroke="#0d9488" stroke-width="2"/>
<text x="760" y="493" font-family="Arial,sans-serif" font-size="14" fill="#14b8a6" text-anchor="middle">📶</text>
<text x="800" y="482" font-family="Arial,sans-serif" font-size="9" fill="#0d9488">RFID</text>
<text x="800" y="496" font-family="Arial,sans-serif" font-size="9" fill="#0d9488">READER</text>
<rect x="836" y="466" width="100" height="44" rx="4" fill="#0a1e38"/>
<rect x="846" y="476" width="80" height="8" rx="4" fill="#0d9488" opacity="0.7"/>
<rect x="846" y="490" width="60" height="6" rx="3" fill="#0d9488" opacity="0.4"/>
<text x="835" y="118" font-family="Arial,sans-serif" font-size="10" fill="#0d9488" text-anchor="middle" letter-spacing="1.5" font-weight="700">TSE LOCKER</text>

<!-- TEXT LEFT -->
<text x="80" y="64" font-family="Arial,sans-serif" font-size="12" font-weight="700" fill="#14b8a6" letter-spacing="3">DỰ ÁN THỰC TẾ</text>
<text x="80" y="148" font-family="Georgia,serif" font-size="60" font-weight="900" fill="#fff">Tủ Locker</text>
<text x="80" y="216" font-family="Georgia,serif" font-size="60" font-weight="900" fill="#0d9488">Sinh viên</text>
<text x="80" y="282" font-family="Georgia,serif" font-size="40" font-weight="700" fill="#7dd3fc">RMIT Việt Nam</text>
<rect x="80" y="300" width="70" height="4" rx="2" fill="#14b8a6"/>
<text x="80" y="340" font-family="Arial,sans-serif" font-size="20" fill="#7dd3fc">Thẻ sinh viên RFID · Một thẻ</text>
<text x="80" y="366" font-family="Arial,sans-serif" font-size="20" fill="#7dd3fc">đa chức năng · Không chìa khóa</text>
<rect x="80" y="402" width="148" height="50" rx="8" fill="#0c2548" stroke="#0d3a6e" stroke-width="1"/>
<text x="154" y="424" font-family="Arial,sans-serif" font-size="22" font-weight="900" fill="#14b8a6" text-anchor="middle">RFID</text>
<text x="154" y="442" font-family="Arial,sans-serif" font-size="12" fill="#7dd3fc" text-anchor="middle">Thẻ sinh viên</text>
<rect x="242" y="402" width="148" height="50" rx="8" fill="#0c2548" stroke="#0d3a6e" stroke-width="1"/>
<text x="316" y="424" font-family="Arial,sans-serif" font-size="22" font-weight="900" fill="#14b8a6" text-anchor="middle">Học kỳ</text>
<text x="316" y="442" font-family="Arial,sans-serif" font-size="12" fill="#7dd3fc" text-anchor="middle">Quản lý theo</text>
<rect x="80" y="504" width="210" height="50" rx="25" fill="#0d9488"/>
<text x="185" y="534" font-family="Arial,sans-serif" font-size="17" font-weight="800" fill="#fff" text-anchor="middle">TSE VENDING</text>
<text x="80" y="600" font-family="Arial,sans-serif" font-size="14" fill="#0d9488">tsevending.com</text>
</svg>
