<svg width="1200" height="630" viewBox="0 0 1200 630" xmlns="http://www.w3.org/2000/svg">
<defs>
  <linearGradient id="bg" x1="0%" y1="0%" x2="100%" y2="100%">
    <stop offset="0%" stop-color="#1e0a3c"/><stop offset="100%" stop-color="#0d0420"/>
  </linearGradient>
  <linearGradient id="gld" x1="0%" y1="0%" x2="100%" y2="100%">
    <stop offset="0%" stop-color="#fbbf24"/><stop offset="100%" stop-color="#f59e0b"/>
  </linearGradient>
  <filter id="glow"><feGaussianBlur stdDeviation="6" result="b"/><feMerge><feMergeNode in="b"/><feMergeNode in="SourceGraphic"/></feMerge></filter>
  <filter id="sh"><feDropShadow dx="5" dy="8" stdDeviation="10" flood-color="#000" flood-opacity="0.5"/></filter>
</defs>
<rect width="1200" height="630" fill="url(#bg)"/>
<circle cx="1050" cy="-80" r="320" fill="#3b0764" opacity="0.3"/>
<circle cx="80" cy="700" r="260" fill="#1e0a3c" opacity="0.4"/>
<!-- Stars -->
<circle cx="820" cy="80" r="2" fill="#fbbf24" opacity="0.7"/>
<circle cx="870" cy="50" r="1.5" fill="#fbbf24" opacity="0.5"/>
<circle cx="950" cy="70" r="2.5" fill="#fbbf24" opacity="0.6"/>
<circle cx="1020" cy="45" r="1.5" fill="#fbbf24" opacity="0.4"/>
<circle cx="1100" cy="60" r="2" fill="#fbbf24" opacity="0.5"/>
<circle cx="1150" cy="90" r="1" fill="#fbbf24" opacity="0.4"/>
<!-- Suitcase illustration -->
<rect x="1010" y="360" width="130" height="110" rx="10" fill="#2a1052" stroke="#7c3aed" stroke-width="1.5"/>
<rect x="1040" y="345" width="70" height="22" rx="6" fill="#1e0a3c" stroke="#7c3aed" stroke-width="1.5"/>
<rect x="1010" y="390" width="130" height="8" rx="0" fill="#7c3aed" opacity="0.4"/>
<rect x="1064" y="398" width="22" height="16" rx="3" fill="#fbbf24" opacity="0.75"/>
<circle cx="1020" cy="478" r="8" fill="#1e0a3c" stroke="#7c3aed" stroke-width="1.5"/>
<circle cx="1130" cy="478" r="8" fill="#1e0a3c" stroke="#7c3aed" stroke-width="1.5"/>
<!-- Horizontal stripe on suitcase -->
<rect x="1012" y="407" width="126" height="3" rx="1" fill="#7c3aed" opacity="0.3"/>
<rect x="1012" y="430" width="126" height="3" rx="1" fill="#7c3aed" opacity="0.3"/>
<!-- Hotel key card -->
<rect x="880" y="300" width="90" height="60" rx="6" fill="#2a1052" stroke="#fbbf24" stroke-width="1.5"/>
<rect x="880" y="300" width="90" height="18" rx="6 6 0 0" fill="#7c3aed" opacity="0.6"/>
<text x="925" y="314" font-family="Arial,sans-serif" font-size="9" fill="#fbbf24" text-anchor="middle" font-weight="700">ROOM KEY</text>
<circle cx="908" cy="335" r="10" fill="#1e0a3c" stroke="#fbbf24" stroke-width="1"/>
<rect x="924" y="328" width="36" height="4" rx="2" fill="#7c3aed" opacity="0.5"/>
<rect x="924" y="337" width="28" height="4" rx="2" fill="#7c3aed" opacity="0.3"/>
<!-- OTP code display -->
<rect x="880" y="380" width="90" height="38" rx="6" fill="#0d0420" stroke="#7c3aed" stroke-width="1"/>
<text x="925" y="394" font-family="Arial,sans-serif" font-size="10" fill="#c4b5fd" text-anchor="middle">OTP CODE</text>
<text x="925" y="410" font-family="monospace" font-size="14" font-weight="700" fill="#fbbf24" text-anchor="middle">4 8 2 1 9</text>

<!-- LOCKER CABINET -->
<rect x="726" y="108" width="230" height="344" rx="8" fill="rgba(0,0,0,0.4)" filter="url(#sh)"/>
<rect x="720" y="100" width="230" height="344" rx="8" fill="#0d0420"/>
<rect x="720" y="100" width="230" height="26" rx="8" fill="#1e0a3c"/>
<rect x="720" y="116" width="230" height="10" fill="#1e0a3c"/>
<rect x="720" y="100" width="5" height="344" rx="2" fill="#fbbf24" opacity="0.4"/>
<!-- Doors -->
<rect x="730" y="134" width="58" height="62" rx="4" fill="#0a021a" stroke="#2d1060" stroke-width="1"/>
<rect x="782" y="157" width="4" height="14" rx="2" fill="#4c1d95"/>
<rect x="730" y="204" width="58" height="62" rx="4" fill="#0a021a" stroke="#2d1060" stroke-width="1"/>
<rect x="782" y="227" width="4" height="14" rx="2" fill="#4c1d95"/>
<rect x="730" y="274" width="58" height="62" rx="4" fill="#0a021a" stroke="#2d1060" stroke-width="1"/>
<rect x="782" y="297" width="4" height="14" rx="2" fill="#4c1d95"/>
<rect x="730" y="344" width="58" height="62" rx="4" fill="#0a021a" stroke="#2d1060" stroke-width="1"/>
<rect x="782" y="367" width="4" height="14" rx="2" fill="#4c1d95"/>
<!-- Col 2 -->
<rect x="796" y="134" width="58" height="62" rx="4" fill="#0a021a" stroke="#2d1060" stroke-width="1"/>
<rect x="848" y="157" width="4" height="14" rx="2" fill="#4c1d95"/>
<!-- OPEN door gold glow -->
<rect x="796" y="204" width="58" height="62" rx="4" fill="#3b0764" stroke="#fbbf24" stroke-width="2" filter="url(#glow)"/>
<rect x="802" y="210" width="46" height="50" rx="3" fill="#1e0a3c" opacity="0.7"/>
<rect x="848" y="227" width="4" height="14" rx="2" fill="#fbbf24"/>
<!-- Gold star in open door -->
<text x="825" y="242" font-family="Arial,sans-serif" font-size="28" fill="#fbbf24" text-anchor="middle" opacity="0.9">★</text>
<rect x="796" y="274" width="58" height="62" rx="4" fill="#0a021a" stroke="#2d1060" stroke-width="1"/>
<rect x="848" y="297" width="4" height="14" rx="2" fill="#4c1d95"/>
<rect x="796" y="344" width="58" height="62" rx="4" fill="#0a021a" stroke="#2d1060" stroke-width="1"/>
<rect x="848" y="367" width="4" height="14" rx="2" fill="#4c1d95"/>
<!-- Col 3 -->
<rect x="862" y="134" width="58" height="62" rx="4" fill="#0a021a" stroke="#2d1060" stroke-width="1"/>
<rect x="914" y="157" width="4" height="14" rx="2" fill="#4c1d95"/>
<rect x="862" y="204" width="58" height="62" rx="4" fill="#0a021a" stroke="#2d1060" stroke-width="1"/>
<rect x="914" y="227" width="4" height="14" rx="2" fill="#4c1d95"/>
<rect x="862" y="274" width="58" height="62" rx="4" fill="#0a021a" stroke="#2d1060" stroke-width="1"/>
<rect x="914" y="297" width="4" height="14" rx="2" fill="#4c1d95"/>
<rect x="862" y="344" width="58" height="62" rx="4" fill="#0d021e" stroke="#2d1060" stroke-width="1"/>
<rect x="914" y="367" width="4" height="14" rx="2" fill="#4c1d95"/>
<rect x="746" y="442" width="12" height="14" rx="2" fill="#07010e"/>
<rect x="920" y="442" width="12" height="14" rx="2" fill="#07010e"/>
<rect x="720" y="458" width="230" height="62" rx="0 0 8 8" fill="#07010e"/>
<rect x="733" y="468" width="78" height="40" rx="4" fill="#1e0a3c"/>
<text x="772" y="490" font-family="monospace" font-size="14" font-weight="700" fill="#fbbf24" text-anchor="middle" opacity="0.8">8 2 6 1</text>
<text x="772" y="500" font-family="Arial,sans-serif" font-size="9" fill="#c4b5fd" text-anchor="middle">OTP Code</text>
<rect x="823" y="468" width="42" height="40" rx="4" fill="#7c3aed"/>
<text x="844" y="493" font-family="Arial,sans-serif" font-size="20" fill="#fbbf24" text-anchor="middle" font-weight="700">✓</text>
<text x="835" y="118" font-family="Arial,sans-serif" font-size="10" fill="#fbbf24" text-anchor="middle" letter-spacing="1.5" font-weight="700">TSE LOCKER</text>

<!-- TEXT LEFT -->
<text x="80" y="64" font-family="Arial,sans-serif" font-size="12" font-weight="700" fill="#fbbf24" letter-spacing="3">DỰ ÁN THỰC TẾ</text>
<text x="80" y="148" font-family="Georgia,serif" font-size="58" font-weight="900" fill="#fff">Tủ Locker</text>
<text x="80" y="216" font-family="Georgia,serif" font-size="58" font-weight="900" fill="#fbbf24">Khách Sạn</text>
<text x="80" y="274" font-family="Georgia,serif" font-size="36" font-weight="700" fill="#c4b5fd">RSM Nha Trang</text>
<rect x="80" y="292" width="70" height="4" rx="2" fill="#fbbf24"/>
<text x="80" y="336" font-family="Arial,sans-serif" font-size="21" fill="#ddd6fe">Gửi hành lý sau check-out · 24/7</text>
<text x="80" y="364" font-family="Arial,sans-serif" font-size="21" fill="#ddd6fe">Mã OTP · Không cần lễ tân</text>
<rect x="80" y="400" width="148" height="50" rx="8" fill="#2d1060" stroke="#4c1d95" stroke-width="1"/>
<text x="154" y="422" font-family="Arial,sans-serif" font-size="22" font-weight="900" fill="#fbbf24" text-anchor="middle">★★★★★</text>
<text x="154" y="440" font-family="Arial,sans-serif" font-size="11" fill="#ddd6fe" text-anchor="middle">Review khách</text>
<rect x="242" y="400" width="148" height="50" rx="8" fill="#2d1060" stroke="#4c1d95" stroke-width="1"/>
<text x="316" y="422" font-family="Arial,sans-serif" font-size="22" font-weight="900" fill="#fbbf24" text-anchor="middle">-85%</text>
<text x="316" y="440" font-family="Arial,sans-serif" font-size="11" fill="#ddd6fe" text-anchor="middle">Tải lễ tân</text>
<rect x="80" y="504" width="210" height="50" rx="25" fill="url(#gld)"/>
<text x="185" y="534" font-family="Arial,sans-serif" font-size="17" font-weight="800" fill="#1e0a3c" text-anchor="middle">TSE VENDING</text>
<text x="80" y="600" font-family="Arial,sans-serif" font-size="14" fill="#7c3aed">tsevending.com</text>
</svg>
