<svg width="1200" height="630" viewBox="0 0 1200 630" xmlns="http://www.w3.org/2000/svg">
<defs>
  <linearGradient id="bg" x1="0%" y1="0%" x2="100%" y2="100%">
    <stop offset="0%" stop-color="#0d1b2a"/><stop offset="100%" stop-color="#0a2540"/>
  </linearGradient>
  <linearGradient id="gld" x1="0%" y1="0%" x2="100%" y2="0%">
    <stop offset="0%" stop-color="#f59e0b"/><stop offset="100%" stop-color="#fbbf24"/>
  </linearGradient>
  <filter id="glow"><feGaussianBlur stdDeviation="5" result="b"/><feMerge><feMergeNode in="b"/><feMergeNode in="SourceGraphic"/></feMerge></filter>
  <filter id="sh"><feDropShadow dx="5" dy="8" stdDeviation="10" flood-color="#000" flood-opacity="0.45"/></filter>
</defs>
<rect width="1200" height="630" fill="url(#bg)"/>
<!-- Decorative orbs -->
<circle cx="960" cy="-50" r="300" fill="#0e4d91" opacity="0.2"/>
<circle cx="80" cy="680" r="260" fill="#1a3a5c" opacity="0.25"/>
<!-- Rail lines -->
<rect x="0" y="592" width="1200" height="5" fill="#f59e0b" opacity="0.3"/>
<rect x="0" y="607" width="1200" height="5" fill="#f59e0b" opacity="0.2"/>
<rect x="38" y="590" width="10" height="24" rx="1" fill="#f59e0b" opacity="0.2"/>
<rect x="118" y="590" width="10" height="24" rx="1" fill="#f59e0b" opacity="0.15"/>
<rect x="198" y="590" width="10" height="24" rx="1" fill="#f59e0b" opacity="0.12"/>
<rect x="278" y="590" width="10" height="24" rx="1" fill="#f59e0b" opacity="0.1"/>
<!-- Train silhouette -->
<rect x="890" y="430" width="270" height="115" rx="10" fill="#0d2137" stroke="#1a4060" stroke-width="1.5"/>
<rect x="900" y="395" width="250" height="52" rx="9 9 0 0" fill="#0a1d30" stroke="#1a4060" stroke-width="1.5"/>
<rect x="916" y="405" width="44" height="28" rx="5" fill="#0ea5e9" opacity="0.55"/>
<rect x="975" y="405" width="44" height="28" rx="5" fill="#0ea5e9" opacity="0.55"/>
<rect x="1034" y="405" width="44" height="28" rx="5" fill="#0ea5e9" opacity="0.45"/>
<rect x="1093" y="405" width="40" height="28" rx="5" fill="#0ea5e9" opacity="0.35"/>
<rect x="902" y="441" width="48" height="30" rx="4" fill="#0ea5e9" opacity="0.2"/>
<rect x="962" y="441" width="48" height="30" rx="4" fill="#0ea5e9" opacity="0.2"/>
<rect x="1022" y="441" width="48" height="30" rx="4" fill="#0ea5e9" opacity="0.2"/>
<rect x="1082" y="441" width="60" height="30" rx="4" fill="#0ea5e9" opacity="0.15"/>
<circle cx="935" cy="547" r="20" fill="#091929" stroke="#1a4060" stroke-width="2"/>
<circle cx="935" cy="547" r="9" fill="#112a42"/>
<circle cx="1005" cy="547" r="20" fill="#091929" stroke="#1a4060" stroke-width="2"/>
<circle cx="1005" cy="547" r="9" fill="#112a42"/>
<circle cx="1105" cy="547" r="20" fill="#091929" stroke="#1a4060" stroke-width="2"/>
<circle cx="1105" cy="547" r="9" fill="#112a42"/>
<circle cx="892" cy="458" r="11" fill="#f59e0b" opacity="0.85" filter="url(#glow)"/>

<!-- LOCKER CABINET -->
<rect x="726" y="108" width="230" height="344" rx="8" fill="rgba(0,0,0,0.3)" filter="url(#sh)"/>
<rect x="720" y="100" width="230" height="344" rx="8" fill="#0d2137"/>
<rect x="720" y="100" width="230" height="26" rx="8" fill="#162d4a"/>
<rect x="720" y="116" width="230" height="10" fill="#162d4a"/>
<rect x="720" y="100" width="5" height="344" rx="2" fill="#0ea5e9" opacity="0.4"/>
<!-- Doors col1: x=730, col2: x=796, col3: x=862 · row1:y=134, row2:y=204, row3:y=274, row4:y=344 · 58x62 -->
<!-- Col 1 -->
<rect x="730" y="134" width="58" height="62" rx="4" fill="#0a1929" stroke="#1e3a5c" stroke-width="1"/>
<rect x="782" y="157" width="4" height="14" rx="2" fill="#2a6496"/>
<rect x="730" y="204" width="58" height="62" rx="4" fill="#0a1929" stroke="#1e3a5c" stroke-width="1"/>
<rect x="782" y="227" width="4" height="14" rx="2" fill="#2a6496"/>
<rect x="730" y="274" width="58" height="62" rx="4" fill="#0a1929" stroke="#1e3a5c" stroke-width="1"/>
<rect x="782" y="297" width="4" height="14" rx="2" fill="#2a6496"/>
<rect x="730" y="344" width="58" height="62" rx="4" fill="#0a1929" stroke="#1e3a5c" stroke-width="1"/>
<rect x="782" y="367" width="4" height="14" rx="2" fill="#2a6496"/>
<!-- Col 2 -->
<rect x="796" y="134" width="58" height="62" rx="4" fill="#0a1929" stroke="#1e3a5c" stroke-width="1"/>
<rect x="848" y="157" width="4" height="14" rx="2" fill="#2a6496"/>
<!-- OPEN DOOR glow -->
<rect x="796" y="204" width="58" height="62" rx="4" fill="#0c4a6e" stroke="#38bdf8" stroke-width="2" filter="url(#glow)"/>
<rect x="802" y="210" width="46" height="50" rx="3" fill="#075985" opacity="0.6"/>
<rect x="848" y="227" width="4" height="14" rx="2" fill="#38bdf8"/>
<!-- Suitcase in open door -->
<rect x="812" y="219" width="24" height="28" rx="3" fill="#f59e0b" opacity="0.9"/>
<rect x="817" y="215" width="14" height="6" rx="2" fill="#d97706"/>
<circle cx="816" cy="246" r="3" fill="#92400e"/>
<circle cx="834" cy="246" r="3" fill="#92400e"/>
<rect x="796" y="274" width="58" height="62" rx="4" fill="#0a1929" stroke="#1e3a5c" stroke-width="1"/>
<rect x="848" y="297" width="4" height="14" rx="2" fill="#2a6496"/>
<rect x="796" y="344" width="58" height="62" rx="4" fill="#0a1929" stroke="#1e3a5c" stroke-width="1"/>
<rect x="848" y="367" width="4" height="14" rx="2" fill="#2a6496"/>
<!-- Col 3 -->
<rect x="862" y="134" width="58" height="62" rx="4" fill="#0a1929" stroke="#1e3a5c" stroke-width="1"/>
<rect x="914" y="157" width="4" height="14" rx="2" fill="#2a6496"/>
<rect x="862" y="204" width="58" height="62" rx="4" fill="#0a1929" stroke="#1e3a5c" stroke-width="1"/>
<rect x="914" y="227" width="4" height="14" rx="2" fill="#2a6496"/>
<rect x="862" y="274" width="58" height="62" rx="4" fill="#0a1929" stroke="#1e3a5c" stroke-width="1"/>
<rect x="914" y="297" width="4" height="14" rx="2" fill="#2a6496"/>
<rect x="862" y="344" width="58" height="62" rx="4" fill="#0d2c4a" stroke="#2a5080" stroke-width="1"/>
<rect x="914" y="367" width="4" height="14" rx="2" fill="#2a6496"/>
<!-- Cabinet legs -->
<rect x="746" y="442" width="12" height="14" rx="2" fill="#070f1a"/>
<rect x="920" y="442" width="12" height="14" rx="2" fill="#070f1a"/>
<!-- Keypad panel -->
<rect x="720" y="458" width="230" height="62" rx="0 0 8 8" fill="#091522"/>
<rect x="733" y="468" width="78" height="40" rx="4" fill="#0a2040"/>
<circle cx="753" cy="488" r="3" fill="#38bdf8" opacity="0.7"/>
<circle cx="772" cy="488" r="3" fill="#38bdf8" opacity="0.5"/>
<circle cx="791" cy="488" r="3" fill="#38bdf8" opacity="0.3"/>
<rect x="823" y="468" width="42" height="40" rx="4" fill="url(#gld)"/>
<text x="844" y="493" font-family="Arial,sans-serif" font-size="20" fill="#0d1b2a" text-anchor="middle" font-weight="700">▣</text>
<text x="835" y="118" font-family="Arial,sans-serif" font-size="10" fill="#4a90d9" text-anchor="middle" letter-spacing="1.5" font-weight="700">TSE LOCKER</text>

<!-- TEXT LEFT -->
<text x="80" y="64" font-family="Arial,sans-serif" font-size="12" font-weight="700" fill="#f59e0b" letter-spacing="3">DỰ ÁN THỰC TẾ</text>
<text x="80" y="148" font-family="Georgia,serif" font-size="68" font-weight="900" fill="#fff">Tủ Locker</text>
<text x="80" y="228" font-family="Georgia,serif" font-size="68" font-weight="900" fill="#f59e0b">Ga Hà Nội</text>
<rect x="80" y="248" width="70" height="4" rx="2" fill="#0ea5e9"/>
<text x="80" y="292" font-family="Arial,sans-serif" font-size="22" fill="#93c5fd">Gửi hành lý tự động · 24/7</text>
<text x="80" y="320" font-family="Arial,sans-serif" font-size="22" fill="#93c5fd">Mã QR · Không xếp hàng chờ</text>
<rect x="80" y="356" width="148" height="50" rx="8" fill="#0e3060" stroke="#1e5c9e" stroke-width="1"/>
<text x="154" y="378" font-family="Arial,sans-serif" font-size="24" font-weight="900" fill="#f59e0b" text-anchor="middle">30"</text>
<text x="154" y="396" font-family="Arial,sans-serif" font-size="12" fill="#93c5fd" text-anchor="middle">Mỗi giao dịch</text>
<rect x="242" y="356" width="148" height="50" rx="8" fill="#0e3060" stroke="#1e5c9e" stroke-width="1"/>
<text x="316" y="378" font-family="Arial,sans-serif" font-size="24" font-weight="900" fill="#f59e0b" text-anchor="middle">24/7</text>
<text x="316" y="396" font-family="Arial,sans-serif" font-size="12" fill="#93c5fd" text-anchor="middle">Hoạt động</text>
<rect x="80" y="504" width="210" height="50" rx="25" fill="url(#gld)"/>
<text x="185" y="534" font-family="Arial,sans-serif" font-size="17" font-weight="800" fill="#0d1b2a" text-anchor="middle">TSE VENDING</text>
<text x="80" y="600" font-family="Arial,sans-serif" font-size="14" fill="#4a90d9">tsevending.com</text>
</svg>
