<svg width="1200" height="630" viewBox="0 0 1200 630" xmlns="http://www.w3.org/2000/svg">
<defs>
  <linearGradient id="bg" x1="0%" y1="0%" x2="100%" y2="100%">
    <stop offset="0%" stop-color="#1e1b4b"/><stop offset="100%" stop-color="#0d0b2e"/>
  </linearGradient>
  <linearGradient id="bar1" x1="0%" y1="0%" x2="0%" y2="100%">
    <stop offset="0%" stop-color="#a78bfa"/><stop offset="100%" stop-color="#7c3aed"/>
  </linearGradient>
  <filter id="glow"><feGaussianBlur stdDeviation="5" result="b"/><feMerge><feMergeNode in="b"/><feMergeNode in="SourceGraphic"/></feMerge></filter>
  <filter id="sh"><feDropShadow dx="4" dy="6" stdDeviation="10" flood-color="#000" flood-opacity="0.4"/></filter>
</defs>
<rect width="1200" height="630" fill="url(#bg)"/>
<circle cx="1000" cy="-60" r="300" fill="#4c1d95" opacity="0.2"/>
<circle cx="80" cy="660" r="250" fill="#1e1b4b" opacity="0.3"/>
<!-- Chart bars (trend up) -->
<rect x="760" y="390" width="52" height="100" rx="4" fill="#4c1d95" opacity="0.7"/>
<rect x="820" y="340" width="52" height="150" rx="4" fill="#5b21b6" opacity="0.75"/>
<rect x="880" y="280" width="52" height="210" rx="4" fill="#6d28d9" opacity="0.8"/>
<rect x="940" y="200" width="52" height="290" rx="4" fill="#7c3aed" opacity="0.85"/>
<rect x="1000" y="130" width="52" height="360" rx="4" fill="url(#bar1)"/>
<!-- Trend line -->
<polyline points="786,380 846,330 906,270 966,190 1026,120" stroke="#c4b5fd" stroke-width="3" fill="none" stroke-linecap="round" stroke-linejoin="round"/>
<!-- Arrow tip -->
<polygon points="1026,110 1016,128 1036,128" fill="#c4b5fd"/>
<!-- Bar labels -->
<text x="786" y="502" font-family="Arial,sans-serif" font-size="12" fill="#7c3aed" text-anchor="middle">2022</text>
<text x="846" y="502" font-family="Arial,sans-serif" font-size="12" fill="#7c3aed" text-anchor="middle">2023</text>
<text x="906" y="502" font-family="Arial,sans-serif" font-size="12" fill="#9d7fea" text-anchor="middle">2024</text>
<text x="966" y="502" font-family="Arial,sans-serif" font-size="12" fill="#a78bfa" text-anchor="middle">2025</text>
<text x="1026" y="502" font-family="Arial,sans-serif" font-size="13" font-weight="700" fill="#c4b5fd" text-anchor="middle">2026</text>
<!-- Percent badge on top bar -->
<rect x="994" y="88" width="64" height="30" rx="15" fill="#a78bfa"/>
<text x="1026" y="108" font-family="Arial,sans-serif" font-size="14" font-weight="800" fill="#1e1b4b" text-anchor="middle">+40%</text>
<!-- LOCKER mini icon -->
<rect x="1080" y="200" width="80" height="110" rx="6" fill="#2d1b69" stroke="#7c3aed" stroke-width="1.5"/>
<rect x="1080" y="200" width="80" height="16" rx="6 6 0 0" fill="#4c1d95"/>
<rect x="1086" y="222" width="30" height="26" rx="3" fill="#1a0e3c" stroke="#4c1d95" stroke-width="1"/>
<rect x="1122" y="222" width="30" height="26" rx="3" fill="#1a0e3c" stroke="#4c1d95" stroke-width="1"/>
<rect x="1086" y="254" width="30" height="26" rx="3" fill="#1a0e3c" stroke="#4c1d95" stroke-width="1"/>
<!-- Glowing open door -->
<rect x="1122" y="254" width="30" height="26" rx="3" fill="#4c1d95" stroke="#a78bfa" stroke-width="1.5" filter="url(#glow)"/>
<rect x="1152" y="222" width="3" height="14" rx="1.5" fill="#7c3aed"/>
<rect x="1152" y="254" width="3" height="14" rx="1.5" fill="#a78bfa"/>
<rect x="1086" y="286" width="66" height="6" rx="3" fill="#1a0e3c" stroke="#4c1d95" stroke-width="1"/>

<!-- TEXT LEFT -->
<text x="80" y="64" font-family="Arial,sans-serif" font-size="12" font-weight="700" fill="#a78bfa" letter-spacing="3">XU HƯỚNG · 2026</text>
<text x="80" y="148" font-family="Georgia,serif" font-size="62" font-weight="900" fill="#fff">Smart Locker</text>
<text x="80" y="220" font-family="Georgia,serif" font-size="52" font-weight="900" fill="#a78bfa">Việt Nam 2026</text>
<rect x="80" y="238" width="70" height="4" rx="2" fill="#7c3aed"/>
<text x="80" y="278" font-family="Arial,sans-serif" font-size="21" fill="#c4b5fd">5 ngành dẫn đầu triển khai</text>
<text x="80" y="306" font-family="Arial,sans-serif" font-size="21" fill="#c4b5fd">Tăng trưởng 35-40%/năm</text>
<rect x="80" y="342" width="145" height="50" rx="8" fill="#2d1b69" stroke="#4c1d95" stroke-width="1"/>
<text x="152" y="364" font-family="Arial,sans-serif" font-size="24" font-weight="900" fill="#a78bfa" text-anchor="middle">35%</text>
<text x="152" y="382" font-family="Arial,sans-serif" font-size="12" fill="#c4b5fd" text-anchor="middle">Tăng trưởng/năm</text>
<rect x="240" y="342" width="145" height="50" rx="8" fill="#2d1b69" stroke="#4c1d95" stroke-width="1"/>
<text x="312" y="364" font-family="Arial,sans-serif" font-size="24" font-weight="900" fill="#a78bfa" text-anchor="middle">1.500</text>
<text x="312" y="382" font-family="Arial,sans-serif" font-size="12" fill="#c4b5fd" text-anchor="middle">Tỷ đồng/2028</text>
<rect x="80" y="504" width="210" height="50" rx="25" fill="#7c3aed"/>
<text x="185" y="534" font-family="Arial,sans-serif" font-size="17" font-weight="800" fill="#fff" text-anchor="middle">TSE VENDING</text>
<text x="80" y="600" font-family="Arial,sans-serif" font-size="14" fill="#7c3aed">tsevending.com</text>
</svg>
